<mxfile host="app.diagrams.net" modified="2022-08-21T19:49:12.743Z" agent="5.0 (Windows NT 10.0; Win64; x64) AppleWebKit/537.36 (KHTML, like Gecko) Chrome/104.0.5112.81 Safari/537.36 Edg/104.0.1293.54" etag="gVy0JGeP22rY6b9iRS32" version="20.2.5" type="github">
  <diagram id="R2lEEEUBdFMjLlhIrx00" name="Page-1">
    <mxGraphModel dx="992" dy="571" grid="1" gridSize="10" guides="1" tooltips="1" connect="1" arrows="1" fold="1" page="1" pageScale="1" pageWidth="850" pageHeight="1100" math="0" shadow="0" extFonts="Permanent Marker^https://fonts.googleapis.com/css?family=Permanent+Marker">
      <root>
        <mxCell id="0" />
        <mxCell id="1" parent="0" />
        <mxCell id="OTPGn9KjPBOWXrjLJ4Nn-30" value="Student" style="swimlane;childLayout=stackLayout;horizontal=1;startSize=30;horizontalStack=0;rounded=1;fontSize=14;fontStyle=0;strokeWidth=2;resizeParent=0;resizeLast=1;shadow=0;dashed=0;align=center;" vertex="1" parent="1">
          <mxGeometry x="80" y="40" width="160" height="120" as="geometry" />
        </mxCell>
        <mxCell id="OTPGn9KjPBOWXrjLJ4Nn-31" value="+Attribute1&#xa;+Attribute2&#xa;+Attribute3" style="align=left;strokeColor=none;fillColor=none;spacingLeft=4;fontSize=12;verticalAlign=top;resizable=0;rotatable=0;part=1;" vertex="1" parent="OTPGn9KjPBOWXrjLJ4Nn-30">
          <mxGeometry y="30" width="160" height="90" as="geometry" />
        </mxCell>
        <mxCell id="OTPGn9KjPBOWXrjLJ4Nn-46" value="+Attribute1&#xa;+Attribute2&#xa;+Attribute3" style="align=left;strokeColor=none;fillColor=none;spacingLeft=4;fontSize=12;verticalAlign=top;resizable=0;rotatable=0;part=1;" vertex="1" parent="OTPGn9KjPBOWXrjLJ4Nn-30">
          <mxGeometry y="120" width="160" as="geometry" />
        </mxCell>
        <mxCell id="OTPGn9KjPBOWXrjLJ4Nn-32" value="Book" style="swimlane;childLayout=stackLayout;horizontal=1;startSize=20;horizontalStack=0;rounded=1;fontSize=14;fontStyle=0;strokeWidth=2;resizeParent=0;resizeLast=1;shadow=0;dashed=0;align=center;" vertex="1" parent="1">
          <mxGeometry x="660" y="40" width="160" height="120" as="geometry" />
        </mxCell>
        <mxCell id="OTPGn9KjPBOWXrjLJ4Nn-33" value="+Attribute1&#xa;+Attribute2&#xa;+Attribute3" style="align=left;strokeColor=none;fillColor=none;spacingLeft=4;fontSize=12;verticalAlign=top;resizable=0;rotatable=0;part=1;" vertex="1" parent="OTPGn9KjPBOWXrjLJ4Nn-32">
          <mxGeometry y="20" width="160" height="100" as="geometry" />
        </mxCell>
        <mxCell id="OTPGn9KjPBOWXrjLJ4Nn-34" value="Author" style="swimlane;childLayout=stackLayout;horizontal=1;startSize=30;horizontalStack=0;rounded=1;fontSize=14;fontStyle=0;strokeWidth=2;resizeParent=0;resizeLast=1;shadow=0;dashed=0;align=center;" vertex="1" parent="1">
          <mxGeometry x="660" y="260" width="160" height="120" as="geometry" />
        </mxCell>
        <mxCell id="OTPGn9KjPBOWXrjLJ4Nn-60" style="edgeStyle=none;rounded=1;orthogonalLoop=1;jettySize=auto;html=1;entryX=0.188;entryY=0.167;entryDx=0;entryDy=0;entryPerimeter=0;targetPerimeterSpacing=0;strokeWidth=1;" edge="1" parent="OTPGn9KjPBOWXrjLJ4Nn-34" source="OTPGn9KjPBOWXrjLJ4Nn-35" target="OTPGn9KjPBOWXrjLJ4Nn-34">
          <mxGeometry relative="1" as="geometry" />
        </mxCell>
        <mxCell id="OTPGn9KjPBOWXrjLJ4Nn-35" value="+Attribute1&#xa;+Attribute2&#xa;+Attribute3" style="align=left;strokeColor=none;fillColor=none;spacingLeft=4;fontSize=12;verticalAlign=top;resizable=0;rotatable=0;part=1;" vertex="1" parent="OTPGn9KjPBOWXrjLJ4Nn-34">
          <mxGeometry y="30" width="160" height="90" as="geometry" />
        </mxCell>
        <mxCell id="OTPGn9KjPBOWXrjLJ4Nn-36" value="Transaction" style="swimlane;childLayout=stackLayout;horizontal=1;startSize=30;horizontalStack=0;rounded=1;fontSize=14;fontStyle=0;strokeWidth=2;resizeParent=0;resizeLast=1;shadow=0;dashed=0;align=center;" vertex="1" parent="1">
          <mxGeometry x="380" y="370" width="160" height="120" as="geometry" />
        </mxCell>
        <mxCell id="OTPGn9KjPBOWXrjLJ4Nn-37" value="+Attribute1&#xa;+Attribute2&#xa;+Attribute3" style="align=left;strokeColor=none;fillColor=none;spacingLeft=4;fontSize=12;verticalAlign=top;resizable=0;rotatable=0;part=1;" vertex="1" parent="OTPGn9KjPBOWXrjLJ4Nn-36">
          <mxGeometry y="30" width="160" height="90" as="geometry" />
        </mxCell>
        <mxCell id="OTPGn9KjPBOWXrjLJ4Nn-38" value="StudentDetails" style="swimlane;childLayout=stackLayout;horizontal=1;startSize=30;horizontalStack=0;rounded=1;fontSize=14;fontStyle=0;strokeWidth=2;resizeParent=0;resizeLast=1;shadow=0;dashed=0;align=center;" vertex="1" parent="1">
          <mxGeometry x="80" y="260" width="160" height="120" as="geometry" />
        </mxCell>
        <mxCell id="OTPGn9KjPBOWXrjLJ4Nn-39" value="+Attribute1&#xa;+Attribute2&#xa;+Attribute3" style="align=left;strokeColor=none;fillColor=none;spacingLeft=4;fontSize=12;verticalAlign=top;resizable=0;rotatable=0;part=1;" vertex="1" parent="OTPGn9KjPBOWXrjLJ4Nn-38">
          <mxGeometry y="30" width="160" height="90" as="geometry" />
        </mxCell>
        <mxCell id="OTPGn9KjPBOWXrjLJ4Nn-44" style="rounded=1;orthogonalLoop=1;jettySize=auto;html=1;entryX=0;entryY=0.5;entryDx=0;entryDy=0;targetPerimeterSpacing=0;strokeWidth=1;" edge="1" parent="1" source="OTPGn9KjPBOWXrjLJ4Nn-31" target="OTPGn9KjPBOWXrjLJ4Nn-33">
          <mxGeometry relative="1" as="geometry" />
        </mxCell>
        <mxCell id="OTPGn9KjPBOWXrjLJ4Nn-45" value="one to many" style="edgeLabel;html=1;align=center;verticalAlign=middle;resizable=0;points=[];" vertex="1" connectable="0" parent="OTPGn9KjPBOWXrjLJ4Nn-44">
          <mxGeometry x="0.0454" y="-1" relative="1" as="geometry">
            <mxPoint y="1" as="offset" />
          </mxGeometry>
        </mxCell>
        <mxCell id="OTPGn9KjPBOWXrjLJ4Nn-49" style="edgeStyle=none;rounded=1;orthogonalLoop=1;jettySize=auto;html=1;entryX=0.5;entryY=1;entryDx=0;entryDy=0;strokeWidth=1;sourcePerimeterSpacing=0;exitX=0.5;exitY=0;exitDx=0;exitDy=0;" edge="1" parent="1" source="OTPGn9KjPBOWXrjLJ4Nn-34" target="OTPGn9KjPBOWXrjLJ4Nn-33">
          <mxGeometry relative="1" as="geometry">
            <mxPoint x="740" y="250" as="sourcePoint" />
            <Array as="points">
              <mxPoint x="740" y="180" />
            </Array>
          </mxGeometry>
        </mxCell>
        <mxCell id="OTPGn9KjPBOWXrjLJ4Nn-50" value="many to one" style="edgeLabel;html=1;align=center;verticalAlign=middle;resizable=0;points=[];" vertex="1" connectable="0" parent="OTPGn9KjPBOWXrjLJ4Nn-49">
          <mxGeometry x="-0.0866" relative="1" as="geometry">
            <mxPoint as="offset" />
          </mxGeometry>
        </mxCell>
        <mxCell id="OTPGn9KjPBOWXrjLJ4Nn-51" style="edgeStyle=none;rounded=1;orthogonalLoop=1;jettySize=auto;html=1;exitX=0.5;exitY=1;exitDx=0;exitDy=0;targetPerimeterSpacing=0;strokeWidth=1;entryX=0.5;entryY=0;entryDx=0;entryDy=0;" edge="1" parent="1" source="OTPGn9KjPBOWXrjLJ4Nn-31" target="OTPGn9KjPBOWXrjLJ4Nn-38">
          <mxGeometry relative="1" as="geometry">
            <mxPoint x="160" y="210" as="targetPoint" />
          </mxGeometry>
        </mxCell>
        <mxCell id="OTPGn9KjPBOWXrjLJ4Nn-52" value="one to one" style="edgeLabel;html=1;align=center;verticalAlign=middle;resizable=0;points=[];" vertex="1" connectable="0" parent="OTPGn9KjPBOWXrjLJ4Nn-51">
          <mxGeometry x="-0.2232" relative="1" as="geometry">
            <mxPoint y="22" as="offset" />
          </mxGeometry>
        </mxCell>
        <mxCell id="OTPGn9KjPBOWXrjLJ4Nn-53" style="edgeStyle=none;rounded=1;orthogonalLoop=1;jettySize=auto;html=1;exitX=1;exitY=1;exitDx=0;exitDy=0;targetPerimeterSpacing=0;strokeWidth=1;entryX=0.25;entryY=0;entryDx=0;entryDy=0;" edge="1" parent="1" source="OTPGn9KjPBOWXrjLJ4Nn-31" target="OTPGn9KjPBOWXrjLJ4Nn-36">
          <mxGeometry relative="1" as="geometry">
            <mxPoint x="370" y="380" as="targetPoint" />
          </mxGeometry>
        </mxCell>
        <mxCell id="OTPGn9KjPBOWXrjLJ4Nn-56" value="one to many" style="edgeLabel;html=1;align=center;verticalAlign=middle;resizable=0;points=[];" vertex="1" connectable="0" parent="OTPGn9KjPBOWXrjLJ4Nn-53">
          <mxGeometry x="-0.23" y="-2" relative="1" as="geometry">
            <mxPoint x="1" as="offset" />
          </mxGeometry>
        </mxCell>
        <mxCell id="OTPGn9KjPBOWXrjLJ4Nn-57" style="edgeStyle=none;rounded=1;orthogonalLoop=1;jettySize=auto;html=1;exitX=0;exitY=1;exitDx=0;exitDy=0;targetPerimeterSpacing=0;strokeWidth=1;" edge="1" parent="1" source="OTPGn9KjPBOWXrjLJ4Nn-33" target="OTPGn9KjPBOWXrjLJ4Nn-36">
          <mxGeometry relative="1" as="geometry">
            <Array as="points">
              <mxPoint x="560" y="280" />
            </Array>
          </mxGeometry>
        </mxCell>
        <mxCell id="OTPGn9KjPBOWXrjLJ4Nn-58" value="one to many" style="edgeLabel;html=1;align=center;verticalAlign=middle;resizable=0;points=[];" vertex="1" connectable="0" parent="OTPGn9KjPBOWXrjLJ4Nn-57">
          <mxGeometry x="-0.0462" y="-1" relative="1" as="geometry">
            <mxPoint as="offset" />
          </mxGeometry>
        </mxCell>
        <mxCell id="OTPGn9KjPBOWXrjLJ4Nn-59" style="edgeStyle=none;rounded=1;orthogonalLoop=1;jettySize=auto;html=1;exitX=0.5;exitY=0;exitDx=0;exitDy=0;targetPerimeterSpacing=0;strokeWidth=1;" edge="1" parent="1" source="OTPGn9KjPBOWXrjLJ4Nn-36" target="OTPGn9KjPBOWXrjLJ4Nn-36">
          <mxGeometry relative="1" as="geometry" />
        </mxCell>
      </root>
    </mxGraphModel>
  </diagram>
</mxfile>
